
<svg width="20px" height="20px" viewBox="0 0 20 20" version="1.1" xmlns="http://www.w3.org/2000/svg" xmlns:xlink="http://www.w3.org/1999/xlink">
    <g id="Symbols" stroke="none" stroke-width="1" fill="none" fill-rule="evenodd">
        <g id="footer/idle" transform="translate(-255.000000, -130.000000)">
            <rect fill="#F5F6F6" x="0" y="0" width="1440" height="522"></rect>
            <g id="Icon/linkedin" transform="translate(255.000000, 130.000000)" fill="#3A3A3A">
                <g id="footer-linkedin">
                    <path d="M18.5204514,0 C19.3359035,0 20,0.645601965 20,1.44206388 L20,1.44206388 L20,18.5568551 C20,19.3532678 19.3359035,20 18.5204514,20 L18.5204514,20 L1.47517505,20 C0.661344632,20 0,19.3532678 0,18.5568551 L0,18.5568551 L0,1.44206388 C0,0.645601965 0.661344632,0 1.47517505,0 L1.47517505,0 L18.5204514,0 Z M5.718246,7.27311143 L2.73646958,7.27311143 L2.73646958,16.875 L5.718246,16.875 L5.718246,7.27311143 Z M13.3015562,7.03482663 C11.8522919,7.03482663 10.8803586,7.83090549 10.4831667,8.58575416 L10.4831667,8.58575416 L10.4423571,8.58575416 L10.4423571,7.27311143 L7.58695758,7.27311143 L7.58695758,16.875 L10.5621708,16.875 L10.5621708,12.1259148 C10.5621708,10.8732882 10.7986898,9.65966715 12.3486707,9.65966715 C13.8773833,9.65966715 13.8964804,11.0921444 13.8964804,12.2056067 L13.8964804,16.875 L16.875,16.875 L16.875,11.6090048 C16.875,9.02297215 16.3176286,7.03482663 13.3015562,7.03482663 Z M4.228172,2.5 C3.27148684,2.5 2.5,3.27531545 2.5,4.23048154 C2.5,5.18594425 3.27148684,5.96125969 4.228172,5.96125969 C5.18105747,5.96125969 5.95466621,5.18594425 5.95466621,4.23048154 C5.95466621,3.27531545 5.18105747,2.5 4.228172,2.5 Z" id="LinkedIn" fill-rule="nonzero"></path>
                </g>
            </g>
        </g>
    </g>
</svg>
