
<svg width="20px" height="20px" viewBox="0 0 20 20" version="1.1" xmlns="http://www.w3.org/2000/svg" xmlns:xlink="http://www.w3.org/1999/xlink">
    <g id="Symbols" stroke="none" stroke-width="1" fill="none" fill-rule="evenodd">
        <g id="footer/idle" transform="translate(-300.000000, -130.000000)">
            <rect fill="#F5F6F6" x="0" y="0" width="1440" height="522"></rect>
            <g id="Icon/Youtube" transform="translate(300.000000, 130.000000)" fill="#3A3A3A">
                <path d="M0,10 C0,4.47715223 4.47715223,0 10,0 C15.5228478,0 20,4.47715223 20,10 C20,15.5228478 15.5228478,20 10,20 C4.47715223,20 0,15.5228478 0,10 Z M15.1104242,7.53050807 C14.9877576,7.05925537 14.626303,6.68816397 14.1673333,6.56222043 C13.3355758,6.33333333 10,6.33333333 10,6.33333333 C10,6.33333333 6.66442423,6.33333333 5.83260607,6.56222043 C5.37363637,6.68816397 5.01218183,7.05925537 4.88951517,7.53050807 C4.66666667,8.38459947 4.66666667,10.1666667 4.66666667,10.1666667 C4.66666667,10.1666667 4.66666667,11.948672 4.88951517,12.8028253 C5.01218183,13.274078 5.37363637,13.6451694 5.83260607,13.7711747 C6.66442423,14 10,14 10,14 C10,14 13.3355758,14 14.1673333,13.7711747 C14.626303,13.6451694 14.9877576,13.274078 15.1104242,12.8028253 C15.3333333,11.948672 15.3333333,10.1666667 15.3333333,10.1666667 C15.3333333,10.1666667 15.3333333,8.38459947 15.1104242,7.53050807 Z" id="Combined-Shape"></path>
                <polygon id="Fill-2" points="9 12 9 8.66666667 11.6666667 10.333397"></polygon>
            </g>
        </g>
    </g>
</svg>
